<svg width="48" height="48" viewBox="0 0 48 48" fill="none" xmlns="http://www.w3.org/2000/svg">
<path id="Vector" d="M9.05555 38.7834C7.08747 36.2394 6.50425 35.4091 6.05543 34.5955L5.96183 34.4203C5.862 34.2407 5.76439 34.0599 5.66902 33.8779C5.54522 33.6436 5.43308 33.4033 5.333 33.1579C4.91539 32.1211 4.83619 31.2067 5.50101 30.3619C6.66506 28.874 8.55633 29.294 10.15 30.6571C11.1772 31.5331 12.7085 33.1051 13.6421 34.2235C14.2541 34.9555 15.3702 35.7139 16.1862 35.9851C16.2648 36.0116 16.345 36.0333 16.4262 36.0498L16.8534 34.7059C15.2549 34.1529 13.7442 33.3729 12.3677 32.3899C9.24756 30.1435 6.53545 25.7348 6.76826 22.3725C6.91227 20.2485 7.63229 18.1653 8.90434 16.1422C8.79766 15.1552 8.73919 14.1636 8.72914 13.171C8.72914 11.9974 9.11315 10.723 9.84998 9.32386C9.98127 9.07533 10.1762 8.86615 10.4149 8.71771C10.6536 8.56928 10.9275 8.48692 11.2084 8.47907C12.4996 8.43809 13.7902 8.57538 15.0438 8.88706C16.1358 9.16306 17.2903 9.64785 18.5119 10.339C20.3408 9.95985 22.1121 9.76785 23.8305 9.76785C25.5514 9.76785 27.3419 9.95985 29.2043 10.3414C30.7932 9.45105 32.19 8.84626 33.4093 8.52947C34.9933 8.11907 36.419 8.24147 37.5926 8.96626C37.7543 9.06639 37.8966 9.19484 38.0127 9.34546C38.7327 10.2766 39.1311 11.5126 39.2607 13.0366C39.3615 14.1982 39.3255 15.3526 39.1527 16.4973C40.1919 18.0597 40.8688 20.0565 41.2024 22.4733C41.7448 26.4188 39.9423 30.4819 37.079 32.8219C35.7446 33.9115 33.9109 34.7659 31.5732 35.4139C31.722 35.9322 31.8276 36.4482 31.89 36.9642C31.9956 37.8138 32.07 40.0938 32.1204 43.9001C34.7653 42.5225 36.8174 41.1642 38.2767 39.8322C40.7608 37.569 42.6328 34.3579 43.8521 30.6283C44.8721 27.5084 45.0689 24.8756 44.5649 21.9741C43.9481 18.4461 43.0601 15.5686 41.7232 13.2598C40.1583 10.5574 37.6623 8.00388 34.6765 6.13671C31.8204 4.34633 27.1882 3.14875 23.5401 3.14875C19.7096 3.14875 15.423 4.38953 12.1709 6.6839C9.00755 8.91586 6.38665 12.2758 4.86739 15.571C3.66494 18.1821 3.17052 20.9637 3.17052 25.07C3.17052 28.3964 4.38017 32.4379 5.80582 34.9675C6.93147 36.9642 8.52993 38.8554 10.8796 40.9098C12.0629 41.9466 13.7357 42.9809 15.8958 44.0033V42.9881C13.0037 42.3162 10.7044 40.9146 9.05555 38.7834ZM8.19872 31.7707C8.19877 31.7667 8.19877 31.7627 8.19872 31.7587V31.7707ZM11.5708 36.8634C12.9389 38.637 14.9574 39.7242 17.7151 40.1274C18.09 40.1821 18.4327 40.3697 18.6808 40.6561C18.9289 40.9425 19.0657 41.3085 19.0663 41.6874V46.4225C19.0649 46.6823 18.9996 46.9379 18.8761 47.1665C18.7527 47.3952 18.5748 47.5899 18.3583 47.7336C18.1418 47.8773 17.8932 47.9656 17.6346 47.9905C17.3759 48.0155 17.1151 47.9765 16.875 47.8769C13.3349 46.4225 10.642 44.9009 8.78434 43.2761C6.17784 40.9962 4.35137 38.8314 3.03852 36.5082C1.36325 33.5299 0 28.9724 0 25.0676C0 20.5437 0.571222 17.3277 1.98488 14.2606C3.72254 10.4878 6.68666 6.6911 10.3372 4.11594C14.1461 1.42798 19.0735 0 23.5353 0C27.7595 0 32.9749 1.34878 36.3638 3.47035C39.7815 5.61111 42.6424 8.53667 44.4665 11.6878C46.0242 14.3734 47.013 17.5749 47.685 21.4365C48.2803 24.8468 48.0451 27.998 46.8666 31.6003C45.489 35.8074 43.3457 39.4842 40.42 42.153C38.3031 44.0825 35.2454 45.9713 31.2348 47.8481C30.995 47.9614 30.7305 48.0127 30.4657 47.9973C30.2008 47.9819 29.9441 47.9002 29.7191 47.7597C29.494 47.6192 29.3079 47.4245 29.1777 47.1934C29.0475 46.9623 28.9774 46.7021 28.9739 46.4369C28.9259 41.2794 28.8467 38.1954 28.7411 37.3458C28.6306 36.5219 28.39 35.7208 28.0283 34.9723C27.9277 34.7573 27.877 34.5224 27.8801 34.2852C27.8833 34.0479 27.9401 33.8144 28.0463 33.6022C28.1525 33.39 28.3054 33.2046 28.4935 33.0599C28.6816 32.9152 28.9 32.815 29.1323 32.7667C31.878 32.1835 33.8557 31.3747 35.0605 30.3907C37.1126 28.7132 38.4447 25.7108 38.0583 22.9028C37.7511 20.6805 37.1294 19.0005 36.2246 17.8437C36.0852 17.6662 35.9857 17.4606 35.9331 17.2411C35.8805 17.0215 35.876 16.7932 35.9198 16.5717C36.1358 15.4918 36.1958 14.4046 36.0998 13.303C36.0326 12.5206 35.879 11.9302 35.6606 11.5222C35.3126 11.407 34.8421 11.4118 34.2061 11.5774C33.1741 11.8438 31.854 12.4414 30.27 13.3654C29.9212 13.57 29.5076 13.6343 29.1131 13.5454C27.38 13.142 25.6075 12.932 23.8281 12.919C22.1649 12.919 20.42 13.1254 18.5983 13.543C18.195 13.6355 17.7715 13.5675 17.4175 13.3534C16.2414 12.643 15.1854 12.1726 14.2637 11.9422C13.6157 11.779 12.9437 11.6782 12.2549 11.6398C12.0125 12.2422 11.8949 12.7534 11.8949 13.171C11.8949 13.9918 11.9669 15.0574 12.1109 16.3581C12.1515 16.7274 12.0596 17.0991 11.8517 17.4069C10.6804 19.1445 10.0468 20.8653 9.92918 22.5885C9.78038 24.7124 11.9117 28.1732 14.2253 29.8387C15.6534 30.8683 17.3263 31.6387 19.2487 32.1475C19.455 32.2014 19.6481 32.2966 19.8164 32.4274C19.9847 32.5582 20.1248 32.7217 20.228 32.9082C20.3312 33.0947 20.3955 33.3002 20.417 33.5122C20.4384 33.7243 20.4166 33.9385 20.3528 34.1419L19.1455 37.9506C19.0734 38.1776 18.9509 38.3852 18.7871 38.5581C18.6233 38.731 18.4226 38.8647 18.1999 38.949C17.2375 39.3138 16.2078 39.3138 15.1758 38.973C13.8029 38.517 12.1901 37.4202 11.1988 36.2346C10.9236 35.9076 10.6403 35.5876 10.3492 35.2747C10.6756 35.7066 11.0764 36.225 11.5708 36.8634Z" fill="white"/>
</svg>
